<svg width="949" height="911" viewBox="0 0 949 911" fill="none" xmlns="http://www.w3.org/2000/svg">
<path d="M448.673 3.86667C444.94 7.20001 444.273 8.66667 444.273 14C444.273 19.4667 444.807 20.8 449.34 24.8L454.407 29.4667L479.073 29.0667L503.873 28.6667L507.74 24.2667C510.673 21.0667 511.607 18.6667 511.607 14.5333C511.607 1.60001 507.74 6.60121e-06 477.073 6.60121e-06H452.94L448.673 3.86667Z" fill="black"/>
<path d="M444.94 46.6667C414.14 49.7334 378.94 57.0667 348.273 66.9334C326.94 73.7334 322.273 77.4667 322.273 87.3334C322.273 92.6667 322.94 94.2667 326.807 98.1334C332.807 104.133 336.407 104 359.607 96.6667C380.94 90.0001 406.54 84.0001 428.94 80.5334C450.54 77.2001 500.807 77.0667 522.273 80.4001C549.74 84.6667 580.54 92.6667 599.74 100.667C601.473 101.333 603.473 98.5334 609.473 87.2001C613.607 79.3334 616.94 72.8001 616.94 72.5334C616.94 71.6001 572.54 57.8667 560.273 55.0667C525.34 47.2001 476.54 43.7334 444.94 46.6667Z" fill="black"/>
<path d="M652.273 74.2667C641.34 80 636.273 89.4667 637.207 102.533C637.873 111.867 641.607 118.133 649.34 123.067C662.94 132 680.007 126.933 687.873 111.6C691.873 103.6 690.807 91.3333 685.473 83.7333C678.273 73.3333 662.54 68.8 652.273 74.2667Z" fill="black"/>
<path d="M271.874 86.1334C268.407 88.5334 264.94 94.8 264.94 98.6667C264.94 106.933 272.674 114.667 280.94 114.667C286.94 114.667 295.607 106 295.607 100.133C295.607 90.8 289.207 84 280.274 84C277.34 84 273.474 84.9334 271.874 86.1334Z" fill="black"/>
<path d="M445.607 122.267C348.673 134.667 266.807 181.333 204.94 259.333C183.473 286.4 162.94 322.267 151.073 353.867C147.74 362.533 144.807 369.733 144.673 369.867C138.54 372.267 68.4067 408.133 55.6067 415.333C30.6734 429.6 -0.526588 448.267 0.00674541 448.8C0.273412 449.067 19.3401 449.333 42.4067 449.333L84.2734 449.467L116.273 470.667C133.873 482.267 156.94 496.933 167.607 503.2C178.273 509.467 187.873 515.2 188.94 516C190.273 516.8 164.807 517.2 114.273 517.2C72.1401 517.2 31.7401 517.2 24.4067 517.333C11.3401 517.333 11.3401 517.333 6.80675 521.867C3.07341 525.6 2.27341 527.467 2.27341 531.867C2.27341 534.933 3.20675 538.933 4.40675 540.8C9.34008 548.267 6.27341 548 108.007 548H201.873L211.74 555.067C235.073 571.733 262.807 588.8 284.807 599.867C311.207 613.2 357.207 630.133 386.54 637.333C422.94 646.267 432.673 647.333 476.273 647.333C519.34 647.333 528.94 646.267 563.74 637.867C602.54 628.533 650.673 609.333 682.007 590.533C694.273 583.067 729.34 560 739.74 552.533L746.007 548H842.007H938.14L942.807 543.867C951.073 536.667 950.407 525.2 941.74 519.867C937.74 517.467 933.34 517.333 847.607 517.333H757.607L764.94 513.067C789.073 499.2 820.673 479.733 831.607 472C838.54 467.067 848.94 460 854.54 456.133L864.94 449.2L906.273 449.6C928.94 449.867 947.607 449.733 947.607 449.333C947.607 448.4 948.94 449.2 907.34 424.8C867.473 401.6 843.34 388 821.607 376.933L806.94 369.467L801.073 354.4C784.007 310.4 754.54 266.133 715.74 226.4C686.407 196.133 642.14 165.467 604.673 149.2C575.607 136.533 542.54 127.2 512.94 123.2C500.14 121.6 456.14 120.933 445.607 122.267ZM508.54 155.333C575.607 164.133 640.407 197.6 692.007 250.267C712.14 270.8 722.673 283.6 736.14 304C746.14 319.067 763.073 349.067 762.007 350C761.74 350.133 753.207 346.4 742.94 341.733C699.74 321.733 656.807 305.467 618.94 294.667C568.273 280.4 533.873 274.4 492.94 272.667C413.34 269.2 314.407 293.733 198.007 345.867C193.74 347.733 190.273 348.933 190.273 348.667C190.273 346.4 204.14 320.933 212.673 307.467C251.607 246 311.207 196.533 374.807 172.8C399.34 163.6 430.54 156.267 453.607 154.267C468.007 152.933 494.407 153.6 508.54 155.333ZM393.873 328.4C364.54 358 351.473 389.867 353.34 427.333C355.073 459.2 368.007 487.2 391.34 509.6C407.473 524.933 424.273 533.867 447.873 539.6C461.34 542.933 495.34 542.8 507.607 539.6C520.673 536 544.407 523.733 554.273 515.333C578.94 494.267 594.007 466.4 598.273 433.733C601.34 409.733 595.073 381.2 581.873 359.333C573.607 345.733 560.54 329.6 551.473 322C548.007 319.067 545.207 316.533 545.473 316.4C546.007 315.867 570.673 321.333 584.007 324.933L597.34 328.667L605.34 339.333C641.607 388 639.74 462.533 600.807 514.667C585.34 535.467 560.273 555.467 538.407 564.667C502.14 579.867 460.007 581.2 424.007 568.133C384.273 553.733 354.673 527.467 336.273 490C327.34 471.867 322.807 456.267 320.94 437.333C317.34 402.267 326.807 366 346.673 338L352.407 330L369.607 324.933C385.607 320.267 400.673 316.4 404.54 316.133C405.473 316 400.673 321.6 393.873 328.4ZM303.473 352.267C287.207 384.4 283.607 428.267 293.607 469.333C297.74 486.267 311.607 515.6 322.807 531.333C343.873 560.667 378.807 586.933 414.273 600.133C426.407 604.667 425.34 604.8 406.673 601.333C377.74 595.733 359.207 589.6 324.673 574L307.873 566.4L299.207 554.8C278.14 526.667 266.407 501.733 258.673 469.333C251.873 440.533 253.207 401.2 262.007 370.8L265.607 358.267L286.273 351.2C297.607 347.333 307.073 344.133 307.34 344.133C307.473 344 305.74 347.733 303.473 352.267ZM664.673 351.467L684.94 359.067L688.807 371.867C695.873 395.2 698.14 418.667 695.607 442.667C690.94 487.867 677.74 521.333 650.54 557.067C643.34 566.533 642.673 567.067 626.807 574.667C597.207 588.8 573.207 596.667 541.073 602.667C525.873 605.467 519.74 605.6 530.807 602.8C538.673 600.8 571.073 584.533 583.207 576.4C611.873 557.333 638.273 523.733 650.94 490C665.607 450.8 667.207 409.867 655.473 373.333C651.607 361.467 647.607 352 644.673 347.6C643.207 345.6 642.54 344 643.207 344C643.74 344 653.473 347.333 664.673 351.467ZM495.473 362.533C523.473 371.2 540.273 397.733 535.873 426.267C532.407 448.267 518.673 466.667 501.073 472.8C491.073 476.267 477.74 477.6 469.34 476.133C437.34 470.267 415.74 440.4 420.94 409.2C423.873 392.133 434.273 376 447.207 368.4C461.473 360 480.273 357.733 495.473 362.533Z" fill="black"/>
<path d="M442.274 192C397.34 198.267 348.807 218.133 318.007 242.8C306.94 251.733 282.007 274.8 282.807 275.6C283.074 275.867 286.54 274.4 290.407 272.133C305.207 263.867 325.207 257.867 343.474 256.4C352.274 255.733 355.607 254.533 369.074 247.867C408.274 228.4 451.34 219.467 490.94 222.667C526.94 225.6 558.807 235.067 586.54 251.333C593.074 255.2 595.74 256 602.274 256C617.874 256 640.007 262.267 661.074 272.667L668.274 276.133L658.94 267.067C642.14 250.533 633.74 243.733 619.607 234.267C592.674 216.4 556.94 201.333 525.607 194.667C514.674 192.267 506.807 191.6 481.607 191.333C464.807 191.067 447.074 191.333 442.274 192Z" fill="black"/>
<path d="M470.407 372.933C458.274 387.6 459.74 414.133 473.34 429.067C480.274 436.533 487.474 440.133 497.207 440.933C505.607 441.733 515.207 439.067 518.54 435.067C520.007 433.067 520.007 432.933 517.607 434C512.407 436.133 501.474 437.067 494.94 435.867C468.807 431.067 457.74 397.2 474.274 372.267C478.274 366.4 475.474 366.8 470.407 372.933Z" fill="black"/>
<path d="M461.074 374C455.207 380.667 453.207 385.2 451.74 394.933C448.94 411.6 453.874 426.4 466.274 438.8C474.94 447.6 482.674 450.667 495.74 450.667C504.274 450.667 513.207 448.267 514.94 445.333C515.474 444.533 514.274 444.533 512.007 445.467C510.007 446.267 503.607 446.933 497.874 446.933C489.34 446.933 486.14 446.267 480.274 443.467C467.874 437.333 458.674 424.133 455.607 408C453.474 396.933 456.807 382.933 463.607 373.2C467.474 367.867 466.14 368.267 461.074 374Z" fill="black"/>
<path d="M450.54 379.067C445.34 386.533 442.674 393.067 440.94 402.4C439.34 411.467 441.34 421.333 447.607 434.133C459.607 458.8 491.34 468.667 514.14 454.667C520.274 450.8 518.674 450.133 511.474 453.467C506.807 455.733 503.207 456.4 493.34 456.4C482.14 456.4 480.14 456 472.274 452.133C446.274 439.333 437.207 404.667 452.94 377.6C456.54 371.467 455.074 372.267 450.54 379.067Z" fill="black"/>
<path d="M442.273 382.267C433.073 396.8 430.54 408.4 433.607 422.267C439.473 448.933 452.007 462.4 475.473 467.467C492.54 471.067 503.473 469.333 512.94 461.467L516.273 458.667L510.273 461.2C497.607 466.667 481.073 466 466.54 459.333C448.14 450.933 436.673 431.6 436.673 408.933C436.673 399.333 437.207 397.333 442.14 387.2C445.073 381.067 447.207 376 446.807 376C446.54 376 444.407 378.8 442.273 382.267Z" fill="black"/>
<path d="M434.14 384.933C421.074 406 419.074 425.6 427.874 443.867C436.674 462 462.54 476.4 481.74 473.733C484.94 473.333 487.474 472.8 487.207 472.533C487.074 472.267 482.674 471.467 477.74 470.667C465.074 468.667 455.874 464 447.74 455.333C438.807 445.867 433.607 434.533 430.94 418.8C428.407 404.4 428.807 401.2 434.274 389.467C438.94 379.733 438.807 377.333 434.14 384.933ZM431.74 440.933C433.34 444.133 438.007 450.267 442.14 454.4C446.674 458.8 448.007 460.667 445.474 458.933C434.94 451.733 426.94 438.133 425.74 425.333L424.94 418L426.94 426.4C428.007 431.067 430.14 437.6 431.74 440.933Z" fill="black"/>
<path d="M737.206 126.933C731.873 128.4 727.606 134.8 727.606 141.6C727.606 151.467 738.406 158.533 747.74 154.667C757.473 150.533 760.006 139.6 752.94 131.467C748.54 126.533 743.873 125.2 737.206 126.933Z" fill="black"/>
<path d="M205.074 128.533C198.674 132.133 196.54 140.667 200.274 148C203.074 153.333 207.34 156 213.34 156C217.474 156 219.474 155.067 223.074 151.467C232.94 141.6 226.54 126.533 212.674 126.667C210.274 126.8 206.807 127.6 205.074 128.533Z" fill="black"/>
<path d="M141.34 166.667C136.14 169.867 134.273 173.067 134.273 179.333C134.273 193.067 151.473 199.6 160.14 189.2C166.407 181.733 163.607 169.6 154.94 165.867C148.94 163.333 146.407 163.467 141.34 166.667Z" fill="black"/>
<path d="M801.474 165.867C795.74 168.4 792.94 172.933 792.94 179.467C792.94 193.867 810.674 199.733 819.607 188.267C822.54 184.667 823.074 178.267 820.94 172.8C818.407 166.133 808.674 162.667 801.474 165.867Z" fill="black"/>
<path d="M107.074 219.333C104.274 220.267 99.7405 223.333 97.0738 225.867L92.1405 230.667H73.2071C54.4071 230.667 54.2738 230.667 50.1405 234.4C41.4738 242.133 44.6738 257.067 55.6071 260.933C58.1405 261.867 67.3405 262.533 75.8738 262.533L91.6071 262.667L97.6071 267.333C103.474 271.733 110.807 274.667 116.14 274.667C121.074 274.667 128.94 271.6 133.607 267.733C150.94 253.333 144.54 224.267 122.807 218.8C115.607 216.933 113.474 217.067 107.074 219.333Z" fill="black"/>
<path d="M874.273 219.467C871.74 220.533 867.473 223.467 864.94 226L860.14 230.667L815.34 230.933L770.406 231.333L778.673 243.6C792.006 263.067 786.54 261.067 826.273 261.6L860.806 262L864.54 265.6C876.806 277.333 896.54 275.467 907.206 261.6C912.54 254.533 913.74 247.467 911.073 238.267C906.273 221.867 888.94 213.067 874.273 219.467Z" fill="black"/>
<path d="M10.2733 303.6C2.6733 306.4 -0.793366 315.467 2.93997 323.2C7.20663 332 6.6733 332 67.2066 332H121.607L123.74 328.267C124.94 326.267 128.94 319.733 132.807 313.6L139.607 302.667L76.0066 302.8C40.94 302.8 11.34 303.2 10.2733 303.6Z" fill="black"/>
<path d="M820.673 317.333L829.34 332H882.54C940.94 332 942.94 331.733 946.806 324.133C948.006 322 948.94 318.533 948.94 316.667C948.94 312.133 945.606 305.733 942.406 304C940.673 303.2 917.206 302.667 875.873 302.667H811.873L820.673 317.333Z" fill="black"/>
<path d="M52.8069 584.533C40.9402 587.6 33.4736 595.867 32.0069 607.733C28.9402 634.667 62.5402 649.333 80.5402 628.933C89.8736 618.267 89.7402 604.8 80.1402 593.467C73.3402 585.333 63.0736 582 52.8069 584.533Z" fill="black"/>
<path d="M814.807 589.867C811.073 593.6 810.273 595.467 810.273 600C810.273 604.533 811.073 606.4 814.807 610.133C819.873 615.2 825.073 616 831.607 612.667C836.807 610 839.607 605.6 839.607 600.267C839.607 591.2 834.007 585.467 825.207 585.333C820.273 585.333 818.54 586.133 814.807 589.867Z" fill="black"/>
<path d="M881.34 587.467C872.273 592 870.673 604.667 878.273 611.2C883.606 615.6 886.806 616.4 892.14 614.667C902.006 611.467 906.273 601.2 901.073 592.933C898.406 588.533 892.673 585.333 887.74 585.333C886.54 585.333 883.74 586.4 881.34 587.467Z" fill="black"/>
<path d="M126.273 612.933C115.473 616.4 111.073 626 116.54 634.267C121.073 641.067 123.073 641.333 181.873 641.333C230.806 641.333 236.673 641.067 239.606 639.067C248.806 632.8 249.34 620 240.54 614.667C236.54 612.133 233.473 612 182.273 612.133C152.54 612.133 127.34 612.533 126.273 612.933Z" fill="black"/>
<path d="M710.673 614.133C708.273 615.333 705.473 618.4 704.14 621.067C702.14 625.333 702.14 626.533 703.74 631.333C706.807 640.267 710.673 641.333 738.273 641.333C765.073 641.333 769.207 640.267 773.34 631.733C775.473 627.467 775.473 626.4 773.873 622.4C769.873 613.067 768.807 612.667 740.407 612.267C719.207 612 714.273 612.4 710.673 614.133Z" fill="black"/>
<path d="M125.34 676.667C120.54 678.667 115.606 685.733 115.606 690.4C115.606 694.533 118.94 700.667 122.54 703.2C126.406 706 136.14 705.867 140.406 703.2C144.273 700.533 147.606 694.8 147.606 690.4C147.606 686.667 143.206 679.333 140.006 677.6C135.34 675.067 129.606 674.8 125.34 676.667Z" fill="black"/>
<path d="M186.673 678.533C179.607 682.933 177.607 689.733 181.473 697.2C185.74 705.333 183.607 705.067 258.407 706.133L326.807 707.067L335.607 711.333C391.873 738.933 470.273 749.067 535.607 737.333C562.273 732.533 590.673 723.733 616.14 712.533L629.34 706.667H675.473C700.807 706.667 722.273 706.667 723.207 706.667C724.407 706.667 724.273 707.867 722.807 711.333C720.007 718.267 720.54 725.333 724.673 733.467C729.473 742.933 736.94 748.267 746.807 749.067C756.273 749.867 762.807 747.467 769.073 741.067C777.607 732.267 779.74 720.267 774.94 707.867C774.273 706.133 778.94 705.867 807.207 705.6C843.873 705.2 844.94 704.933 848.407 696.533C851.207 689.867 848.94 682.133 843.207 678.667C839.073 676.133 835.74 676 731.073 676H623.34L606.407 683.2C585.473 692 565.073 698.667 544.94 703.2C523.073 708 513.74 709.2 489.607 710.133C443.073 712 399.473 703.867 354.54 684.933L334.94 676.8L262.94 676.4C193.473 676 190.807 676.133 186.673 678.533Z" fill="black"/>
<path d="M278.007 736.533C276.007 737.6 272.94 739.467 271.34 740.533C268.807 742.4 262.407 742.667 226.94 742.667C202.673 742.667 183.607 743.2 180.673 744C174.14 745.867 170.273 750.933 170.273 757.6C170.273 764.667 173.34 770.133 178.407 771.867C181.207 772.8 196.673 773.333 222.273 773.333H261.74L265.873 779.067C275.473 792.8 295.607 794.533 308.14 782.933C316.273 775.333 319.073 762.4 314.94 752.267C312.007 745.467 304.007 737.6 298.273 736C291.473 734.133 282.14 734.4 278.007 736.533Z" fill="black"/>
<path d="M625.873 744C617.473 745.067 612.94 749.467 612.006 757.867C611.34 763.467 611.606 764.267 616.006 768.667L620.673 773.333H658.006C694.54 773.333 695.34 773.333 699.74 770.267C708.406 764.4 707.873 751.733 698.673 745.733C695.473 743.6 691.606 743.333 663.606 743.333C646.406 743.333 629.473 743.6 625.873 744Z" fill="black"/>
<path d="M545.207 761.867C539.34 763.867 531.874 771.067 529.474 776.8C522.807 792.667 534.14 812.933 550.94 815.467C572.54 818.667 590.14 796.133 581.074 776.667C574.807 763.067 559.34 756.667 545.207 761.867Z" fill="black"/>
<path d="M353.607 764.933C349.607 765.867 344.007 771.733 343.207 776C341.873 782.133 344.673 789.2 349.34 792C353.207 794.4 356.14 794.667 378.007 794.667C398.007 794.667 403.34 794.267 407.073 792.533C416.14 788.133 418.54 776.4 411.74 769.6C409.473 767.467 405.873 765.333 403.473 764.8C398.673 763.867 357.74 764 353.607 764.933Z" fill="black"/>
<path d="M257.207 812.267C249.073 814.4 245.073 826 249.473 834.533C253.073 841.333 264.407 843.6 270.54 838.667C278.007 832.933 278.673 822 271.873 815.733C267.607 811.733 263.34 810.667 257.207 812.267Z" fill="black"/>
<path d="M685.474 813.333C675.207 817.467 674.007 833.467 683.607 839.067C690.807 843.333 699.34 841.333 703.607 834.4C706.807 829.2 706.94 825.2 704.274 820C700.807 813.467 692.54 810.4 685.474 813.333Z" fill="black"/>
<path d="M345.34 835.333C340.94 839.733 340.674 840.533 341.34 846.133C341.74 850.4 343.074 853.467 345.474 855.867L348.94 859.333L403.074 859.733L457.074 860.133L454.274 863.6C450.274 868.667 447.207 880.4 448.274 886.667C449.74 895.2 455.74 903.2 463.74 907.2C472.94 911.733 479.74 911.733 489.074 906.933C504.94 898.933 509.34 880 498.94 864.8L495.74 860H549.74C595.74 860 604.54 859.733 608.274 858C618.407 853.067 618.807 838.667 608.94 832.933C605.474 830.8 594.407 830.667 477.607 830.667H350.007L345.34 835.333Z" fill="black"/>
</svg>
