<?xml version="1.0" standalone="no"?>
<!DOCTYPE svg PUBLIC "-//W3C//DTD SVG 20010904//EN"
 "http://www.w3.org/TR/2001/REC-SVG-20010904/DTD/svg10.dtd">
<svg version="1.0" xmlns="http://www.w3.org/2000/svg"
 width="1024.000000pt" height="1024.000000pt" viewBox="0 0 1024.000000 1024.000000"
 preserveAspectRatio="xMidYMid meet">
<metadata>
Created by potrace 1.16, written by Peter Selinger 2001-2019
</metadata>
<g transform="translate(0.000000,1024.000000) scale(0.100000,-0.100000)"
fill="#000000" stroke="none">
<path d="M4938 8441 c-28 -25 -33 -36 -33 -76 0 -41 4 -51 38 -81 l38 -35 185
3 186 3 29 33 c22 24 29 42 29 73 0 97 -29 109 -259 109 l-181 0 -32 -29z"/>
<path d="M4910 8120 c-231 -23 -495 -78 -725 -152 -160 -51 -195 -79 -195
-153 0 -40 5 -52 34 -81 45 -45 72 -44 246 11 160 50 352 95 520 121 162 25
539 26 700 1 206 -32 437 -92 581 -152 13 -5 28 16 73 101 31 59 56 108 56
110 0 7 -333 110 -425 131 -262 59 -628 85 -865 63z"/>
<path d="M6465 7913 c-82 -43 -120 -114 -113 -212 5 -70 33 -117 91 -154 102
-67 230 -29 289 86 30 60 22 152 -18 209 -54 78 -172 112 -249 71z"/>
<path d="M3612 7824 c-26 -18 -52 -65 -52 -94 0 -62 58 -120 120 -120 45 0
110 65 110 109 0 70 -48 121 -115 121 -22 0 -51 -7 -63 -16z"/>
<path d="M4915 7553 c-727 -93 -1341 -443 -1805 -1028 -161 -203 -315 -472
-404 -709 -25 -65 -47 -119 -48 -120 -46 -18 -572 -287 -668 -341 -187 -107
-421 -247 -417 -251 2 -2 145 -4 318 -4 l314 -1 240 -159 c132 -87 305 -197
385 -244 80 -47 152 -90 160 -96 10 -6 -181 -9 -560 -9 -316 0 -619 0 -674 -1
-98 0 -98 0 -132 -34 -28 -28 -34 -42 -34 -75 0 -23 7 -53 16 -67 37 -56 14
-54 777 -54 l704 0 74 -53 c175 -125 383 -253 548 -336 198 -100 543 -227 763
-281 273 -67 346 -75 673 -75 323 0 395 8 656 71 291 70 652 214 887 355 92
56 355 229 433 285 l47 34 720 0 721 0 35 31 c62 54 57 140 -8 180 -30 18 -63
19 -706 19 l-675 0 55 32 c181 104 418 250 500 308 52 37 130 90 172 119 l78
52 310 -3 c170 -2 310 -1 310 2 0 7 10 1 -302 184 -299 174 -480 276 -643 359
l-110 56 -44 113 c-128 330 -349 662 -640 960 -220 227 -552 457 -833 579
-218 95 -466 165 -688 195 -96 12 -426 17 -505 7z m472 -248 c503 -66 989
-317 1376 -712 151 -154 230 -250 331 -403 75 -113 202 -338 194 -345 -2 -1
-66 27 -143 62 -324 150 -646 272 -930 353 -380 107 -638 152 -945 165 -597
26 -1339 -158 -2212 -549 -32 -14 -58 -23 -58 -21 0 17 104 208 168 309 292
461 739 832 1216 1010 184 69 418 124 591 139 108 10 306 5 412 -8z m-860
-1298 c-220 -222 -318 -461 -304 -742 13 -239 110 -449 285 -617 121 -115 247
-182 424 -225 101 -25 356 -24 448 0 98 27 276 119 350 182 185 158 298 367
330 612 23 180 -24 394 -123 558 -62 102 -160 223 -228 280 -26 22 -47 41 -45
42 4 4 189 -37 289 -64 l100 -28 60 -80 c272 -365 258 -924 -34 -1315 -116
-156 -304 -306 -468 -375 -272 -114 -588 -124 -858 -26 -298 108 -520 305
-658 586 -67 136 -101 253 -115 395 -27 263 44 535 193 745 l43 60 129 38
c120 35 233 64 262 66 7 1 -29 -41 -80 -92z m-678 -179 c-122 -241 -149 -570
-74 -878 31 -127 135 -347 219 -465 158 -220 420 -417 686 -516 91 -34 83 -35
-57 -9 -217 42 -356 88 -615 205 l-126 57 -65 87 c-158 211 -246 398 -304 641
-51 216 -41 511 25 739 l27 94 155 53 c85 29 156 53 158 53 1 1 -12 -27 -29
-61z m2709 6 l152 -57 29 -96 c53 -175 70 -351 51 -531 -35 -339 -134 -590
-338 -858 -54 -71 -59 -75 -178 -132 -222 -106 -402 -165 -643 -210 -114 -21
-160 -22 -77 -1 59 15 302 137 393 198 215 143 413 395 508 648 110 294 122
601 34 875 -29 89 -59 160 -81 193 -11 15 -16 27 -11 27 4 0 77 -25 161 -56z
m-1269 -83 c210 -65 336 -264 303 -478 -26 -165 -129 -303 -261 -349 -75 -26
-175 -36 -238 -25 -240 44 -402 268 -363 502 22 128 100 249 197 306 107 63
248 80 362 44z"/>
<path d="M4890 7030 c-337 -47 -701 -196 -932 -381 -83 -67 -270 -240 -264
-246 2 -2 28 9 57 26 111 62 261 107 398 118 66 5 91 14 192 64 294 146 617
213 914 189 270 -22 509 -93 717 -215 49 -29 69 -35 118 -35 117 0 283 -47
441 -125 l54 -26 -70 68 c-126 124 -189 175 -295 246 -202 134 -470 247 -705
297 -82 18 -141 23 -330 25 -126 2 -259 0 -295 -5z"/>
<path d="M5101 5673 c-91 -110 -80 -309 22 -421 52 -56 106 -83 179 -89 63 -6
135 14 160 44 11 15 11 16 -7 8 -39 -16 -121 -23 -170 -14 -196 36 -279 290
-155 477 30 44 9 41 -29 -5z"/>
<path d="M5031 5665 c-44 -50 -59 -84 -70 -157 -21 -125 16 -236 109 -329 65
-66 123 -89 221 -89 64 0 131 18 144 40 4 6 -5 6 -22 -1 -15 -6 -63 -11 -106
-11 -64 0 -88 5 -132 26 -93 46 -162 145 -185 266 -16 83 9 188 60 261 29 40
19 37 -19 -6z"/>
<path d="M4952 5627 c-39 -56 -59 -105 -72 -175 -12 -68 3 -142 50 -238 90
-185 328 -259 499 -154 46 29 34 34 -20 9 -35 -17 -62 -22 -136 -22 -84 0 -99
3 -158 32 -195 96 -263 356 -145 559 27 46 16 40 -18 -11z"/>
<path d="M4890 5603 c-69 -109 -88 -196 -65 -300 44 -200 138 -301 314 -339
128 -27 210 -14 281 45 l25 21 -45 -19 c-95 -41 -219 -36 -328 14 -138 63
-224 208 -224 378 0 72 4 87 41 163 22 46 38 84 35 84 -2 0 -18 -21 -34 -47z"/>
<path d="M4829 5583 c-98 -158 -113 -305 -47 -442 66 -136 260 -244 404 -224
24 3 43 7 41 9 -1 2 -34 8 -71 14 -95 15 -164 50 -225 115 -67 71 -106 156
-126 274 -19 108 -16 132 25 220 35 73 34 91 -1 34z m-18 -420 c12 -24 47 -70
78 -101 34 -33 44 -47 25 -34 -79 54 -139 156 -148 252 l-6 55 15 -63 c8 -35
24 -84 36 -109z"/>
<path d="M7102 7518 c-40 -11 -72 -59 -72 -110 0 -74 81 -127 151 -98 73 31
92 113 39 174 -33 37 -68 47 -118 34z"/>
<path d="M3111 7506 c-48 -27 -64 -91 -36 -146 21 -40 53 -60 98 -60 31 0 46
7 73 34 74 74 26 187 -78 186 -18 -1 -44 -7 -57 -14z"/>
<path d="M2633 7220 c-39 -24 -53 -48 -53 -95 0 -103 129 -152 194 -74 47 56
26 147 -39 175 -45 19 -64 18 -102 -6z"/>
<path d="M7584 7226 c-43 -19 -64 -53 -64 -102 0 -108 133 -152 200 -66 22 27
26 75 10 116 -19 50 -92 76 -146 52z"/>
<path d="M2376 6825 c-21 -7 -55 -30 -75 -49 l-37 -36 -142 0 c-141 0 -142 0
-173 -28 -65 -58 -41 -170 41 -199 19 -7 88 -12 152 -12 l118 -1 45 -35 c44
-33 99 -55 139 -55 37 0 96 23 131 52 130 108 82 326 -81 367 -54 14 -70 13
-118 -4z"/>
<path d="M8130 6824 c-19 -8 -51 -30 -70 -49 l-36 -35 -336 -2 -337 -3 62 -92
c100 -146 59 -131 357 -135 l259 -3 28 -27 c92 -88 240 -74 320 30 40 53 49
106 29 175 -36 123 -166 189 -276 141z"/>
<path d="M1650 6193 c-57 -21 -83 -89 -55 -147 32 -66 28 -66 482 -66 l408 0
16 28 c9 15 39 64 68 110 l51 82 -477 -1 c-263 0 -485 -3 -493 -6z"/>
<path d="M7728 6090 l65 -110 399 0 c438 0 453 2 482 59 9 16 16 42 16 56 0
34 -25 82 -49 95 -13 6 -189 10 -499 10 l-480 0 66 -110z"/>
<path d="M1969 4086 c-89 -23 -145 -85 -156 -174 -23 -202 229 -312 364 -159
70 80 69 181 -3 266 -51 61 -128 86 -205 67z"/>
<path d="M7684 4046 c-28 -28 -34 -42 -34 -76 0 -34 6 -48 34 -76 38 -38 77
-44 126 -19 39 20 60 53 60 93 0 68 -42 111 -108 112 -37 0 -50 -6 -78 -34z"/>
<path d="M8183 4064 c-68 -34 -80 -129 -23 -178 40 -33 64 -39 104 -26 74 24
106 101 67 163 -20 33 -63 57 -100 57 -9 0 -30 -8 -48 -16z"/>
<path d="M2520 3873 c-81 -26 -114 -98 -73 -160 34 -51 49 -53 490 -53 367 0
411 2 433 17 69 47 73 143 7 183 -30 19 -53 20 -437 19 -223 0 -412 -3 -420
-6z"/>
<path d="M6903 3864 c-18 -9 -39 -32 -49 -52 -15 -32 -15 -41 -3 -77 23 -67
52 -75 259 -75 201 0 232 8 263 72 16 32 16 40 4 70 -30 70 -38 73 -251 76
-159 2 -196 -1 -223 -14z"/>
<path d="M2513 3395 c-36 -15 -73 -68 -73 -103 0 -31 25 -77 52 -96 29 -21
102 -20 134 0 29 20 54 63 54 96 0 28 -33 83 -57 96 -35 19 -78 21 -110 7z"/>
<path d="M2973 3381 c-53 -33 -68 -84 -39 -140 32 -61 16 -59 577 -67 l513 -7
66 -32 c422 -207 1010 -283 1500 -195 200 36 413 102 604 186 l99 44 346 0
c190 0 351 0 358 0 9 0 8 -9 -3 -35 -21 -52 -17 -105 14 -166 36 -71 92 -111
166 -117 71 -6 120 12 167 60 64 66 80 156 44 249 -5 13 30 15 242 17 275 3
283 5 309 68 21 50 4 108 -39 134 -31 19 -56 20 -841 20 l-808 0 -127 -54
c-157 -66 -310 -116 -461 -150 -164 -36 -234 -45 -415 -52 -349 -14 -676 47
-1013 189 l-147 61 -540 3 c-521 3 -541 2 -572 -16z"/>
<path d="M3658 2946 c-15 -8 -38 -22 -50 -30 -19 -14 -67 -16 -333 -16 -182 0
-325 -4 -347 -10 -49 -14 -78 -52 -78 -102 0 -53 23 -94 61 -107 21 -7 137
-11 329 -11 l296 0 31 -43 c72 -103 223 -116 317 -29 61 57 82 154 51 230 -22
51 -82 110 -125 122 -51 14 -121 12 -152 -4z"/>
<path d="M6267 2890 c-63 -8 -97 -41 -104 -104 -5 -42 -3 -48 30 -81 l35 -35
280 0 c274 0 280 0 313 23 65 44 61 139 -8 184 -24 16 -53 18 -263 18 -129 0
-256 -2 -283 -5z"/>
<path d="M5662 2756 c-44 -15 -100 -69 -118 -112 -50 -119 35 -271 161 -290
162 -24 294 145 226 291 -47 102 -163 150 -269 111z"/>
<path d="M4225 2733 c-30 -7 -72 -51 -78 -83 -10 -46 11 -99 46 -120 29 -18
51 -20 215 -20 150 0 190 3 218 16 68 33 86 121 35 172 -17 16 -44 32 -62 36
-36 7 -343 6 -374 -1z"/>
<path d="M3502 2378 c-61 -16 -91 -103 -58 -167 27 -51 112 -68 158 -31 56 43
61 125 10 172 -32 30 -64 38 -110 26z"/>
<path d="M6714 2370 c-77 -31 -86 -151 -14 -193 54 -32 118 -17 150 35 24 39
25 69 5 108 -26 49 -88 72 -141 50z"/>
<path d="M4163 2205 c-33 -33 -35 -39 -30 -81 3 -32 13 -55 31 -73 l26 -26
406 -3 405 -3 -21 -26 c-30 -38 -53 -126 -45 -173 11 -64 56 -124 116 -154 69
-34 120 -34 190 2 119 60 152 202 74 316 l-24 36 405 0 c345 0 411 2 439 15
76 37 79 145 5 188 -26 16 -109 17 -985 17 l-957 0 -35 -35z"/>
</g>
</svg>
